<svg width="28" height="28" viewBox="0 0 28 28" fill="none" xmlns="http://www.w3.org/2000/svg">
<path d="M14 0C8.74829 0 4.49033 4.25791 4.49033 9.51048C4.49033 15.0186 8.8662 18.4622 11.2331 22.5654C13.4976 26.491 13.4958 28 14 28C14.5042 28 14.5025 26.491 16.7668 22.5654C19.1347 18.4622 23.5097 15.0186 23.5097 9.51048C23.5097 4.25791 19.2517 0 14 0ZM14 13.1472C11.9911 13.1472 10.3624 11.5186 10.3624 9.51048C10.3624 7.50072 11.991 5.87207 14 5.87207C16.0089 5.87207 17.6376 7.50072 17.6376 9.51048C17.6376 11.5186 16.0089 13.1472 14 13.1472Z" fill="#4C4C4C"/>
</svg>
