<svg width="28" height="28" viewBox="0 0 28 28" fill="none" xmlns="http://www.w3.org/2000/svg">
<g clip-path="url(#clip0_198_134)">
<path d="M3.25788 11.6996L6.83805 10.9045C7.44651 10.77 7.87241 10.2214 7.85251 9.59813L7.80646 8.24571C7.78754 7.67357 8.147 7.15557 8.68999 6.97456C8.68999 6.97456 11.7517 5.89262 13.9513 5.42428C16.151 4.95593 19.388 4.6977 19.388 4.6977C19.9581 4.64197 20.4981 4.96764 20.7128 5.49843L21.2231 6.75165C21.4578 7.32893 22.0698 7.65766 22.6798 7.53188L26.2732 6.79972C26.8797 6.67591 27.3132 6.14216 27.3091 5.52348L27.2969 3.39439C27.486 1.4264 26.1797 0.217152 23.9468 0.049918C21.7123 -0.116715 17.0273 0.11948 13.0043 0.975941C8.98082 1.83235 4.60713 3.52427 2.63499 4.58679C0.66236 5.64926 -0.037093 7.286 0.937438 9.00549L1.79231 10.9551C2.04048 11.5217 2.65452 11.8326 3.25788 11.6996Z" fill="#4C4C4C"/>
<path d="M14.9325 22.0652C15.564 22.0642 16.1212 21.8136 16.5365 21.401C16.9491 20.9853 17.1996 20.4285 17.2007 19.797C17.1997 19.1655 16.9492 18.6082 16.5365 18.193C16.1213 17.7804 15.564 17.5299 14.9325 17.5288C14.3011 17.5298 13.7437 17.7804 13.3285 18.193C12.916 18.6082 12.6649 19.1655 12.6644 19.797C12.6649 20.4284 12.916 20.9853 13.3285 21.401C13.7437 21.8136 14.3011 22.0642 14.9325 22.0652Z" fill="#4C4C4C"/>
<path d="M26.6419 18.9488C26.6419 18.9488 24.4474 16.9742 23.4779 15.4918C20.9643 11.6489 20.8003 8.39188 20.8003 8.39188C20.7353 8.21907 20.5691 8.104 20.384 8.104H17.9957C17.7498 8.104 17.5503 8.30339 17.5503 8.54932V10.2766C17.5503 10.5225 17.3509 10.7219 17.1049 10.7219H12.7599C12.5139 10.7219 12.3145 10.5225 12.3145 10.2766V8.54932C12.3145 8.30339 12.1151 8.104 11.8692 8.104H9.48084C9.29578 8.104 9.12959 8.21852 9.06413 8.39188C9.06413 8.39188 8.89897 11.6703 6.36393 15.5271C5.39705 16.9982 3.22552 18.9483 3.22552 18.9483C2.67334 19.5506 2.36655 20.338 2.36655 21.155V21.6183C2.36666 25.1427 5.22386 27.9999 8.7488 27.9999H21.1163C24.6412 27.9999 27.4984 25.1427 27.4984 21.6183V21.153C27.4984 20.3369 27.1926 19.5506 26.6419 18.9488ZM9.52295 19.797C9.52191 18.3081 10.1309 16.946 11.1075 15.9719C12.0815 14.9953 13.4436 14.3863 14.9325 14.3874C16.4215 14.3864 17.7836 14.9953 18.7576 15.9719C19.7341 16.946 20.3427 18.308 20.3422 19.797C20.3427 21.2859 19.7341 22.648 18.7576 23.6221C17.7835 24.5987 16.4215 25.2077 14.9325 25.2066C13.4436 25.2077 12.0815 24.5987 11.1075 23.6221C10.1309 22.6481 9.52186 21.2859 9.52295 19.797Z" fill="#4C4C4C"/>
</g>
<defs>
<clipPath id="clip0_198_134">
<rect width="28" height="28" fill="white"/>
</clipPath>
</defs>
</svg>
