<svg width="53" height="39" viewBox="0 0 53 39" fill="none" xmlns="http://www.w3.org/2000/svg">
<path d="M5.871 31.885C5.892 31.955 5.836 31.99 5.787 32.011C5.668 32.046 5.549 32.081 5.437 32.102C5.262 32.137 5.087 32.151 4.898 32.179C4.884 32.256 4.863 32.326 4.849 32.403C4.737 33.11 4.534 33.803 4.275 34.468C4.198 34.664 4.086 34.839 3.988 35.014C3.946 35.084 3.883 35.147 3.827 35.203C3.792 35.238 3.75 35.259 3.701 35.294C3.673 35.259 3.638 35.224 3.645 35.196C3.659 35.133 3.687 35.077 3.715 35.014C3.799 34.839 3.883 34.664 3.967 34.489C4.282 33.824 4.478 33.124 4.597 32.403C4.611 32.361 4.604 32.312 4.611 32.27C4.611 32.263 4.597 32.249 4.59 32.235C4.569 32.235 4.548 32.214 4.52 32.214C4.205 32.256 3.89 32.298 3.575 32.333C3.54 32.34 3.505 32.361 3.463 32.375C3.456 32.445 3.449 32.501 3.442 32.571C3.442 32.774 3.449 32.977 3.442 33.18C3.435 33.334 3.407 33.481 3.372 33.621C3.358 33.712 3.295 33.768 3.253 33.754C3.197 33.733 3.176 33.677 3.169 33.621C3.162 33.488 3.155 33.362 3.155 33.229C3.155 33.033 3.176 32.837 3.183 32.641C3.183 32.571 3.169 32.501 3.162 32.417C3.001 32.41 2.854 32.438 2.707 32.459C2.532 32.48 2.357 32.508 2.182 32.536C2.077 32.55 1.888 32.55 1.797 32.473C1.776 32.452 1.762 32.431 1.762 32.41C1.741 32.319 1.895 32.242 1.979 32.249C2.259 32.291 2.532 32.214 2.812 32.193C2.924 32.186 3.029 32.158 3.141 32.137C3.176 31.99 3.141 31.871 3.078 31.759C3.064 31.731 3.036 31.717 3.029 31.689C2.98 31.612 2.994 31.535 3.057 31.493C3.134 31.444 3.232 31.458 3.274 31.542C3.323 31.626 3.358 31.731 3.386 31.829C3.407 31.906 3.421 31.99 3.435 32.081C3.652 32.116 3.848 32.046 4.051 32.025C4.247 32.004 4.436 31.962 4.625 31.934C4.702 31.787 4.674 31.647 4.681 31.507C4.681 31.346 4.688 31.178 4.59 31.024C4.548 30.954 4.583 30.87 4.653 30.835C4.674 30.821 4.702 30.821 4.723 30.821C4.772 30.821 4.821 30.842 4.849 30.884C4.877 30.933 4.905 30.989 4.905 31.038C4.919 31.22 4.926 31.395 4.933 31.57C4.933 31.661 4.933 31.752 4.933 31.864C5.003 31.864 5.066 31.864 5.129 31.864C5.255 31.85 5.388 31.822 5.514 31.815C5.598 31.808 5.696 31.787 5.766 31.794C5.843 31.801 5.864 31.857 5.871 31.885ZM12.395 32.263C12.472 32.207 12.591 32.277 12.598 32.368C12.605 32.466 12.549 32.529 12.493 32.599C12.269 32.872 12.059 33.166 11.828 33.425C11.275 34.041 10.687 34.608 9.966 35.021C9.784 35.126 9.595 35.21 9.413 35.287C9.364 35.315 9.308 35.322 9.252 35.322C9.175 35.329 9.105 35.259 9.105 35.182C9.098 35.119 9.14 35.056 9.21 35.042C9.868 34.895 10.379 34.475 10.862 34.041C11.387 33.565 11.856 33.054 12.22 32.452C12.269 32.382 12.325 32.319 12.395 32.263ZM9.525 32.522C9.357 32.424 9.196 32.312 9.035 32.207C8.93 32.144 8.825 32.095 8.72 32.032C8.699 32.018 8.671 32.011 8.65 31.99C8.594 31.955 8.573 31.878 8.608 31.822C8.629 31.773 8.685 31.738 8.734 31.738C8.748 31.738 8.762 31.738 8.769 31.745C8.818 31.766 8.867 31.787 8.916 31.822C9.175 32.004 9.434 32.179 9.728 32.298C9.798 32.333 9.868 32.389 9.931 32.445C9.966 32.473 9.98 32.522 9.952 32.564C9.931 32.592 9.896 32.606 9.861 32.62C9.847 32.627 9.826 32.627 9.77 32.634C9.707 32.606 9.609 32.578 9.525 32.522ZM17.918 33.026C17.967 33.047 18.016 33.082 18.051 33.124C18.114 33.187 18.072 33.306 17.981 33.32C17.939 33.327 17.89 33.327 17.848 33.313C17.757 33.285 17.673 33.25 17.582 33.222C17.225 33.089 16.861 32.963 16.504 32.837C16.448 32.816 16.399 32.809 16.329 32.795C16.315 32.872 16.301 32.921 16.301 32.977C16.287 33.6 16.273 34.223 16.266 34.846C16.259 34.93 16.252 35.014 16.231 35.098C16.21 35.182 16.14 35.231 16.07 35.224C16.007 35.217 15.944 35.154 15.944 35.07C15.937 34.993 15.944 34.916 15.951 34.846C16.063 34.132 16.077 33.411 16.049 32.697C16.035 32.256 16.021 31.822 16 31.381C16 31.304 15.993 31.234 15.986 31.157C15.972 31.045 15.944 30.94 15.832 30.877C15.762 30.842 15.755 30.758 15.783 30.709C15.804 30.66 15.874 30.618 15.937 30.618C15.951 30.618 15.958 30.625 15.972 30.625C16.049 30.639 16.112 30.688 16.14 30.758C16.175 30.856 16.203 30.954 16.21 31.059C16.238 31.423 16.259 31.78 16.28 32.144C16.28 32.256 16.287 32.368 16.294 32.508L17.68 32.949C17.757 32.977 17.841 32.991 17.918 33.026ZM18.296 31.01C18.373 31.164 18.415 31.276 18.485 31.43C18.506 31.472 18.506 31.521 18.52 31.577C18.513 31.605 18.506 31.647 18.499 31.682C18.471 31.752 18.373 31.78 18.31 31.731C18.282 31.696 18.247 31.661 18.233 31.626C18.212 31.577 18.191 31.521 18.17 31.465C18.121 31.325 18.086 31.255 18.023 31.115C17.988 31.045 17.988 30.968 18.037 30.919C18.1 30.877 18.191 30.884 18.24 30.94C18.268 30.961 18.282 30.982 18.296 31.01ZM18.821 30.702C18.961 30.87 19.052 31.059 19.087 31.255C19.08 31.297 19.08 31.311 19.073 31.332C19.052 31.416 18.94 31.458 18.877 31.395C18.835 31.353 18.8 31.297 18.772 31.234C18.73 31.115 18.681 31.003 18.604 30.891C18.541 30.8 18.562 30.744 18.618 30.695C18.674 30.646 18.772 30.646 18.821 30.702ZM24.533 30.674C24.596 30.723 24.624 30.8 24.582 30.87C24.547 30.933 24.512 30.982 24.463 31.031C24.211 31.339 23.952 31.647 23.693 31.948L23.546 32.116C23.602 32.522 23.567 32.928 23.553 33.327C23.532 33.81 23.49 34.293 23.448 34.776C23.441 34.874 23.42 34.979 23.392 35.077C23.371 35.133 23.322 35.182 23.28 35.231C23.238 35.28 23.161 35.245 23.14 35.189C23.133 35.154 23.119 35.119 23.126 35.084C23.126 35 23.126 34.916 23.14 34.832C23.252 34.335 23.259 33.831 23.294 33.334C23.301 33.152 23.308 32.977 23.315 32.802C23.315 32.69 23.308 32.578 23.301 32.473C23.245 32.438 23.21 32.473 23.182 32.501C22.769 32.928 22.363 33.348 21.957 33.775C21.887 33.845 21.817 33.922 21.733 33.985C21.684 34.027 21.6 34.013 21.558 33.971C21.516 33.929 21.495 33.845 21.537 33.789C21.593 33.719 21.656 33.649 21.726 33.586C22.356 33.019 22.958 32.417 23.518 31.78C23.812 31.444 24.127 31.122 24.344 30.723C24.372 30.674 24.414 30.653 24.456 30.653C24.484 30.653 24.512 30.66 24.533 30.674ZM30.553 32.438C30.616 32.438 30.686 32.494 30.693 32.578C30.686 32.613 30.672 32.676 30.658 32.746C30.56 33.047 30.427 33.348 30.273 33.642C30.07 34.006 29.832 34.356 29.58 34.685C29.475 34.818 29.356 34.937 29.209 35.028C29.188 35.035 29.146 35.035 29.132 35.028C29.111 35 29.09 34.951 29.097 34.93C29.146 34.832 29.188 34.748 29.251 34.664C29.342 34.538 29.433 34.433 29.524 34.314C29.867 33.894 30.14 33.446 30.322 32.942C30.364 32.809 30.385 32.676 30.427 32.536C30.441 32.48 30.49 32.445 30.553 32.438ZM28.936 33.229C28.95 33.25 28.957 33.285 28.957 33.32C28.943 33.355 28.929 33.397 28.894 33.425C28.845 33.467 28.782 33.467 28.74 33.425C28.705 33.397 28.67 33.362 28.649 33.32C28.579 33.18 28.509 33.04 28.446 32.9C28.411 32.823 28.439 32.739 28.502 32.704C28.572 32.669 28.663 32.69 28.698 32.76C28.782 32.914 28.859 33.068 28.936 33.229ZM29.489 33.145C29.419 32.998 29.349 32.851 29.293 32.697C29.251 32.62 29.328 32.515 29.44 32.501C29.461 32.522 29.531 32.543 29.545 32.585C29.622 32.732 29.699 32.879 29.762 33.033C29.769 33.068 29.769 33.103 29.755 33.138C29.748 33.229 29.636 33.278 29.566 33.222C29.538 33.201 29.503 33.18 29.489 33.145ZM38.309 32.641C38.309 32.669 38.288 32.718 38.26 32.732C38.141 32.781 38.022 32.837 37.896 32.858C37.483 32.921 37.063 32.977 36.65 33.033C36.615 33.04 36.58 33.047 36.538 33.061C36.517 33.124 36.496 33.187 36.482 33.25C36.37 33.964 36.111 34.517 35.698 35.119C35.649 35.189 35.6 35.259 35.544 35.322C35.509 35.357 35.453 35.378 35.397 35.392C35.306 35.413 35.229 35.322 35.264 35.238C35.285 35.175 35.334 35.112 35.376 35.049C35.488 34.902 35.607 34.762 35.705 34.601C36.006 34.132 36.167 33.719 36.251 33.166C36.258 33.152 36.251 33.131 36.244 33.11C36.167 33.061 36.083 33.082 35.999 33.089C35.502 33.131 34.991 33.11 34.501 33.222C34.473 33.229 34.445 33.229 34.417 33.222C34.361 33.201 34.319 33.166 34.305 33.103C34.298 33.04 34.319 32.991 34.375 32.963C34.431 32.942 34.501 32.928 34.564 32.928C34.935 32.9 35.306 32.886 35.677 32.858C35.873 32.844 36.069 32.83 36.3 32.809C36.335 32.452 36.307 32.27 36.293 31.948C36.286 31.843 36.293 31.738 36.223 31.633C36.174 31.654 36.125 31.675 36.076 31.703C35.733 31.927 35.397 32.158 35.054 32.382C34.991 32.424 34.928 32.459 34.858 32.487C34.788 32.515 34.718 32.494 34.683 32.438C34.648 32.389 34.655 32.298 34.718 32.242C34.774 32.2 34.823 32.165 34.886 32.13C35.628 31.752 36.307 31.283 36.909 30.702C36.93 30.681 36.951 30.667 36.972 30.646C37 30.625 37.028 30.618 37.056 30.618C37.091 30.618 37.126 30.632 37.154 30.66C37.203 30.702 37.217 30.807 37.168 30.863C37.133 30.898 37.091 30.919 37.056 30.947L36.482 31.409C36.573 31.899 36.566 32.375 36.545 32.739C36.615 32.746 36.671 32.767 36.72 32.76C37.021 32.711 37.322 32.662 37.63 32.613C37.728 32.599 37.826 32.564 37.931 32.557C38.029 32.55 38.134 32.557 38.232 32.571C38.26 32.571 38.302 32.613 38.309 32.641ZM43.797 31.472C44.399 31.801 44.644 32.347 44.49 33.019C44.392 33.453 44.21 33.845 43.986 34.223C43.881 34.398 43.762 34.559 43.643 34.727C43.615 34.769 43.573 34.804 43.531 34.825C43.475 34.874 43.391 34.867 43.342 34.811C43.293 34.769 43.286 34.692 43.328 34.636C43.356 34.587 43.398 34.552 43.433 34.517C43.846 34.062 44.119 33.53 44.252 32.935C44.294 32.746 44.294 32.557 44.238 32.368C44.196 32.221 44.133 32.081 44.028 31.969C43.664 31.612 43.216 31.437 42.712 31.458C42.691 31.619 42.677 31.759 42.649 31.899C42.488 32.711 42.089 33.404 41.487 33.985C41.417 34.048 41.326 34.118 41.249 34.174C41.186 34.216 41.13 34.251 41.06 34.279C40.787 34.398 40.535 34.286 40.416 34.013C40.346 33.824 40.332 33.635 40.353 33.446C40.388 33.159 40.465 32.886 40.598 32.627C40.689 32.445 40.801 32.256 40.934 32.088C41.326 31.57 41.858 31.304 42.495 31.22C42.593 31.206 42.691 31.199 42.775 31.199C43.139 31.199 43.475 31.29 43.797 31.472ZM42.383 31.92C42.418 31.787 42.439 31.654 42.404 31.5C42.082 31.549 41.788 31.661 41.536 31.857C41.039 32.235 40.745 32.739 40.633 33.355C40.591 33.523 40.584 33.705 40.647 33.88C40.71 34.048 40.815 34.104 40.976 34.02C41.081 33.964 41.186 33.894 41.277 33.817C41.851 33.306 42.229 32.676 42.383 31.92ZM50.153 32.998C50.524 32.991 50.678 33.124 50.629 33.544C50.58 33.852 50.545 34.153 50.51 34.454C50.503 34.524 50.475 34.615 50.496 34.685C50.531 34.818 50.461 34.902 50.391 35C50.342 35.063 50.244 35.084 50.202 35.028C50.097 34.923 49.985 34.923 49.866 34.916C49.348 34.895 48.823 34.86 48.298 34.916C48.256 34.923 48.2 34.916 48.158 34.909C48.032 34.895 47.983 34.846 47.969 34.741C47.948 34.65 47.948 34.566 47.955 34.475C47.955 34.146 47.955 33.824 47.85 33.509C47.808 33.404 47.836 33.376 47.934 33.299C47.969 33.285 48.025 33.271 48.032 33.236C48.088 33.068 48.221 33.061 48.361 33.054C48.522 33.04 48.676 33.026 48.858 33.012C48.865 32.942 48.879 32.886 48.886 32.837C48.9 32.606 48.914 32.382 48.914 32.151C48.914 31.941 48.928 31.724 48.844 31.514C48.809 31.43 48.858 31.36 48.921 31.332C49.012 31.297 49.103 31.353 49.124 31.437C49.152 31.549 49.166 31.668 49.187 31.801C49.327 31.801 49.453 31.808 49.586 31.801C49.81 31.787 50.034 31.766 50.265 31.745C50.349 31.738 50.44 31.752 50.524 31.78C50.552 31.787 50.58 31.836 50.594 31.878C50.615 31.948 50.566 31.99 50.524 32.011C50.482 32.032 50.426 32.046 50.377 32.046C50.279 32.046 50.174 32.046 50.083 32.032C49.796 32.025 49.509 32.06 49.187 32.123C49.18 32.207 49.173 32.263 49.173 32.312C49.18 32.536 49.187 32.746 49.194 32.984C49.278 32.991 49.334 33.005 49.39 33.005C49.607 33.005 49.824 32.998 50.034 32.998C50.083 32.998 50.118 32.998 50.153 32.998ZM50.37 33.558C50.377 33.481 50.363 33.411 50.356 33.313C50.251 33.299 50.174 33.285 50.097 33.285C49.649 33.285 49.187 33.285 48.732 33.292C48.613 33.292 48.494 33.306 48.389 33.327C48.298 33.348 48.2 33.376 48.144 33.46C48.158 33.642 48.179 33.831 48.2 34.013C48.228 34.202 48.207 34.398 48.284 34.587C48.627 34.65 49.873 34.657 50.181 34.601C50.3 34.265 50.314 33.901 50.37 33.558ZM50.888 30.716C50.916 30.744 50.937 30.793 50.93 30.835C50.93 30.898 50.888 30.933 50.825 30.947C50.79 30.961 50.748 30.954 50.706 30.954C50.167 30.877 49.628 30.912 49.082 30.933C48.634 30.954 48.193 30.989 47.752 31.024C47.703 31.031 47.654 31.038 47.612 31.045C47.598 31.073 47.584 31.101 47.584 31.115C47.619 31.451 47.584 31.787 47.521 32.116C47.416 32.676 47.332 33.243 47.206 33.796C47.136 34.132 47.017 34.461 46.912 34.783C46.877 34.888 46.821 34.979 46.765 35.07C46.73 35.119 46.653 35.133 46.59 35.105C46.534 35.084 46.499 35.021 46.513 34.944C46.527 34.895 46.541 34.846 46.562 34.804C46.891 34.167 47.052 33.474 47.171 32.774C47.234 32.417 47.283 32.06 47.325 31.696C47.346 31.535 47.374 31.367 47.269 31.206C47.234 31.171 47.269 30.891 47.297 30.849C47.339 30.786 47.388 30.765 47.465 30.765C47.801 30.765 48.137 30.758 48.466 30.744C48.613 30.744 48.76 30.716 48.942 30.702C48.97 30.506 49.005 30.352 48.942 30.198C48.928 30.177 48.942 30.156 48.942 30.142C48.942 30.072 48.998 30.009 49.054 30.002C49.124 29.981 49.194 30.023 49.222 30.079C49.243 30.184 49.264 30.296 49.271 30.394C49.285 30.478 49.285 30.555 49.285 30.632C49.369 30.709 49.446 30.674 49.523 30.674C49.845 30.66 50.174 30.646 50.503 30.632C50.573 30.632 50.657 30.632 50.741 30.646C50.79 30.653 50.839 30.674 50.888 30.716Z" fill="white"/>
<path d="M6.55591 12.896V18.008C8.54791 18.272 10.4199 18.464 12.1479 18.584L12.0039 21.392C11.4999 21.416 10.9959 21.416 10.4919 21.416C9.17191 21.416 7.87591 21.368 6.55591 21.248V26.12H3.48391V12.896H6.55591ZM18.857 14.384L30.209 14.36V25.328L18.857 25.352V14.384ZM22.049 22.592L27.017 22.568V17.216L22.049 17.24V22.592ZM44.3895 26.384L41.9655 24.848C43.4535 22.52 44.6295 19.76 45.6855 16.64L40.0695 16.664L40.0455 19.616H37.0215L36.9255 13.808L49.5255 13.784L49.4775 17.24C48.3495 20.84 46.5735 24.032 44.3895 26.384Z" fill="white"/>
<path d="M5.178 8.18645C5.57569 7.61244 6.42431 7.61244 6.822 8.18645L7.5107 9.18051C7.97018 9.84371 7.49552 10.75 6.6887 10.75H5.3113C4.50448 10.75 4.02982 9.84371 4.4893 9.18051L5.178 8.18645Z" fill="white"/>
<path d="M25.8136 8.178C26.3876 8.57569 26.3876 9.42431 25.8136 9.822L24.8195 10.5107C24.1563 10.9702 23.25 10.4955 23.25 9.6887V8.3113C23.25 7.50448 24.1563 7.02982 24.8195 7.4893L25.8136 8.178Z" fill="white"/>
<path d="M43.822 10.8136C43.4243 11.3876 42.5757 11.3876 42.178 10.8136L41.4893 9.81949C41.0298 9.15629 41.5045 8.25 42.3113 8.25H43.6887C44.4955 8.25 44.9702 9.15629 44.5107 9.81949L43.822 10.8136Z" fill="white"/>
</svg>
